<?xml version="1.0" standalone="no"?>
<!DOCTYPE svg PUBLIC "-//W3C//DTD SVG 20010904//EN"
 "http://www.w3.org/TR/2001/REC-SVG-20010904/DTD/svg10.dtd">
<svg version="1.0" xmlns="http://www.w3.org/2000/svg"
 width="260.000000pt" height="35.000000pt" viewBox="0 0 260.000000 35.000000"
 preserveAspectRatio="xMidYMid meet">

<g transform="translate(0.000000,35.000000) scale(0.100000,-0.100000)"
fill="#000000" stroke="none">
<path d="M0 175 l0 -175 1300 0 1300 0 0 175 0 175 -1300 0 -1300 0 0 -175z
m350 8 l0 -47 48 47 c55 54 83 65 32 12 -36 -37 -37 -36 19 -97 36 -41 13 -34
-31 9 -31 30 -40 34 -53 23 -8 -7 -15 -23 -15 -36 0 -13 -4 -24 -10 -24 -6 0
-10 33 -10 80 0 47 4 80 10 80 6 0 10 -21 10 -47z m288 40 c-47 -4 -48 -5 -48
-39 0 -33 1 -34 43 -36 l42 -1 -42 -4 c-42 -4 -43 -5 -43 -39 0 -19 -4 -34
-10 -34 -6 0 -10 33 -10 80 l0 80 58 -2 c56 -2 56 -2 10 -5z m232 -20 c46 -99
59 -133 49 -133 -6 0 -13 9 -16 20 -4 17 -14 20 -53 20 -40 0 -50 -4 -55 -20
-6 -18 -25 -29 -25 -14 0 15 70 154 78 154 5 0 15 -12 22 -27z m180 -43 l0
-70 39 0 c22 0 43 -4 46 -10 4 -6 -15 -10 -49 -10 l-56 0 0 80 c0 47 4 80 10
80 6 0 10 -30 10 -70z m310 60 c23 -14 5 -22 -23 -9 -40 18 -81 -7 -85 -52 -4
-52 19 -73 75 -66 36 4 42 2 32 -9 -17 -21 -73 -17 -103 7 -34 27 -36 82 -4
116 23 24 79 31 108 13z m235 4 c23 -9 48 -62 41 -90 -23 -91 -166 -80 -166
14 0 63 61 100 125 76z m221 -59 l49 -60 6 65 6 65 1 -85 1 -85 -27 30 c-15
17 -39 46 -54 65 l-28 35 0 -62 c0 -35 -4 -63 -10 -63 -6 0 -10 34 -10 81 0
44 4 79 9 77 5 -1 31 -30 57 -63z m262 58 c-46 -4 -48 -6 -48 -34 0 -27 2 -29
41 -29 24 0 38 -4 34 -10 -3 -5 -22 -10 -41 -10 -30 0 -34 -3 -34 -25 0 -23 4
-25 45 -25 25 0 45 -4 45 -10 0 -5 -25 -10 -55 -10 l-55 0 0 80 0 80 58 -2
c56 -2 56 -2 10 -5z"/>
<path d="M828 170 l-17 -40 35 0 c19 0 34 2 34 4 0 6 -30 76 -33 76 -1 0 -10
-18 -19 -40z"/>
<path d="M1520 207 c-32 -16 -41 -84 -14 -104 29 -21 81 -16 98 9 22 32 20 55
-9 83 -27 28 -39 30 -75 12z"/>
</g>
</svg>
